<?xml version="1.0" standalone="no"?>
<!DOCTYPE svg PUBLIC "-//W3C//DTD SVG 20010904//EN"
 "http://www.w3.org/TR/2001/REC-SVG-20010904/DTD/svg10.dtd">
<svg version="1.0" xmlns="http://www.w3.org/2000/svg"
 width="720.000000pt" height="534.000000pt" viewBox="0 0 720.000000 534.000000"
 preserveAspectRatio="xMidYMid meet">
<metadata>
Created by potrace 1.16, written by Peter Selinger 2001-2019
</metadata>
<g transform="translate(0.000000,534.000000) scale(0.100000,-0.100000)"
fill="#000000" stroke="none">
<path d="M3265 5193 c-673 -31 -1196 -160 -1402 -347 -95 -87 -103 -110 -103
-305 0 -186 9 -214 87 -287 l44 -40 74 -945 c73 -923 118 -1474 192 -2384 42
-520 35 -492 147 -557 271 -159 660 -251 1111 -265 532 -15 1018 90 1325 287
77 49 55 -112 200 1455 44 479 91 987 105 1130 13 143 45 490 71 770 39 430
49 511 62 519 37 21 115 103 134 140 18 36 20 54 16 190 -4 126 -8 159 -25
198 -121 269 -851 454 -1768 446 -115 -1 -237 -3 -270 -5z m635 -173 c604 -34
1052 -145 1218 -303 17 -17 32 -39 32 -48 0 -42 -135 -117 -295 -163 -242 -70
-539 -109 -1055 -137 -241 -14 -298 -14 -580 0 -602 29 -967 90 -1181 197 -65
32 -109 73 -109 99 0 24 94 96 175 135 354 172 1074 260 1795 220z m1229 -617
c-54 -57 -247 -130 -458 -173 -296 -60 -540 -81 -1043 -87 -433 -6 -641 2
-918 33 -366 40 -649 119 -747 207 -44 39 -26 47 40 17 189 -85 524 -149 962
-181 208 -16 862 -16 1080 0 488 34 854 105 1055 204 51 25 63 17 29 -20z
m-2939 -299 c296 -86 722 -128 1310 -128 611 0 1047 43 1375 134 55 16 102 27
104 24 5 -4 -3 -84 -164 -1834 -158 -1707 -167 -1795 -178 -1808 -6 -8 -42
-30 -81 -49 -171 -86 -374 -147 -618 -185 -191 -29 -624 -32 -818 -5 -259 36
-459 93 -646 182 l-112 53 -6 58 c-11 100 -286 3540 -286 3576 0 15 4 18 18
13 9 -3 55 -18 102 -31z"/>
<path d="M3444 4976 c-136 -34 -235 -138 -263 -278 -13 -63 -4 -98 27 -98 30
0 42 15 47 60 23 194 237 305 415 215 82 -42 150 -145 150 -230 0 -44 50 -62
71 -24 27 51 -21 185 -92 259 -83 86 -235 127 -355 96z"/>
<path d="M4420 3740 c-11 -11 -22 -30 -25 -42 -3 -13 -52 -646 -110 -1408 -57
-762 -107 -1410 -111 -1441 l-6 -56 82 -7 c45 -4 83 -6 85 -4 2 2 54 656 115
1454 79 1040 108 1459 101 1477 -19 48 -94 64 -131 27z"/>
<path d="M2630 3737 c-13 -7 -29 -24 -34 -39 -6 -18 22 -480 88 -1455 54 -785
99 -1439 102 -1452 5 -22 8 -23 79 -19 40 2 77 7 81 11 4 4 -37 663 -93 1464
l-100 1456 -27 24 c-30 26 -59 29 -96 10z"/>
<path d="M3508 3705 c-15 -9 -30 -29 -36 -47 -6 -20 -9 -593 -8 -1478 l1
-1445 82 -3 83 -3 2 1451 c2 797 -1 1464 -5 1481 -6 22 -18 35 -42 45 -41 17
-43 17 -77 -1z"/>
</g>
</svg>
