<?xml version="1.0" standalone="no"?>
<!DOCTYPE svg PUBLIC "-//W3C//DTD SVG 20010904//EN"
 "http://www.w3.org/TR/2001/REC-SVG-20010904/DTD/svg10.dtd">
<svg version="1.0" xmlns="http://www.w3.org/2000/svg"
 width="512.000000pt" height="512.000000pt" viewBox="0 0 512.000000 512.000000"
 preserveAspectRatio="xMidYMid meet">
<metadata>
Created by potrace 1.15, written by Peter Selinger 2001-2017
</metadata>
<g transform="translate(0.000000,512.000000) scale(0.100000,-0.100000)"
fill="#000000" stroke="none">
<path d="M1945 5106 c-17 -7 -43 -28 -58 -45 l-27 -33 0 -294 0 -294 -564 -2
c-552 -3 -565 -3 -592 -24 -15 -11 -37 -33 -48 -48 -20 -26 -21 -42 -24 -409
-2 -210 0 -406 3 -435 11 -89 78 -142 179 -142 l26 0 0 -1622 c0 -1525 1
-1625 18 -1658 9 -19 32 -45 51 -57 l34 -23 1446 0 c1591 1 1512 -2 1645 63
140 70 244 190 300 347 l31 85 3 1431 3 1432 51 6 c66 9 104 29 128 69 19 30
20 53 20 457 0 404 -1 427 -20 457 -43 71 -12 68 -637 71 l-562 3 -3 294 c-3
279 -4 295 -24 322 -48 65 -23 63 -719 63 -501 -1 -636 -3 -660 -14z m1115
-476 l0 -190 -455 0 -455 0 0 190 0 190 455 0 455 0 0 -190z m1220 -720 l0
-240 -1680 0 -1680 0 0 240 0 240 1680 0 1680 0 0 -240z m-202 -1947 l-3
-1428 -24 -47 c-32 -66 -93 -125 -159 -156 l-57 -27 -1352 -3 -1353 -2 0 1545
0 1545 1475 0 1475 0 -2 -1427z"/>
<path d="M1742 2853 c-18 -9 -43 -30 -55 -47 l-22 -31 -3 -965 c-2 -660 0
-977 8 -1002 5 -20 26 -50 45 -67 29 -25 44 -31 83 -31 29 0 59 8 79 20 67 41
64 -25 61 1069 l-3 989 -25 27 c-28 31 -78 55 -112 55 -13 0 -38 -8 -56 -17z"/>
<path d="M2565 2863 c-37 -10 -73 -43 -89 -83 -14 -36 -16 -139 -16 -988 0
-612 4 -960 10 -984 6 -20 26 -50 46 -67 28 -25 43 -31 82 -31 29 0 59 8 79
20 67 40 63 -23 63 1064 l0 984 -27 33 c-41 48 -92 66 -148 52z"/>
<path d="M3343 2851 c-83 -38 -78 35 -81 -1021 -2 -514 0 -959 3 -989 5 -41
14 -61 40 -90 32 -34 36 -36 99 -36 61 0 68 2 98 33 l33 32 3 993 c3 1117 9
1037 -73 1077 -51 25 -69 25 -122 1z"/>
</g>
</svg>
